<?xml version="1.0" encoding="utf-8"?>
<!-- Generator: Adobe Illustrator 21.1.0, SVG Export Plug-In . SVG Version: 6.00 Build 0)  -->
<svg version="1.1" id="Layer_1" xmlns="http://www.w3.org/2000/svg" xmlns:xlink="http://www.w3.org/1999/xlink" x="0px" y="0px"
	 viewBox="0 0 563.2 463.5" style="enable-background:new 0 0 563.2 463.5;" xml:space="preserve">
<style type="text/css">
	.st0{fill:#7FCCF7;}
	.st1{fill:#FFFFFF;}
	.st2{font-family:'MongolianBaiti';}
	.st3{font-size:167.0665px;}
</style>
<g>
	<path class="st0" d="M37.5,105.4C-32.3,212.7-1.9,356.2,105.4,426s250.8,39.4,320.6-67.9s39.4-250.8-67.9-320.6
		S107.3-1.9,37.5,105.4z M392.6,335.6c-57.4,88.3-175.6,113.4-264,55.9s-113.4-175.6-55.9-264s175.6-113.4,264-55.9
		S450,247.2,392.6,335.6z"/>
</g>
<g>
	
		<rect x="412.9" y="314.2" transform="matrix(0.5452 -0.8383 0.8383 0.5452 -109.3488 556.4906)" class="st0" width="90.7" height="129.7"/>
	
		<ellipse transform="matrix(0.5452 -0.8383 0.8383 0.5452 -114.7411 624.137)" class="st0" cx="517.8" cy="417.8" rx="45.3" ry="45.3"/>
</g>
<g>
	<path class="st0" d="M115.2,315.5c0-71.6,0-142.2,0-214.4c14.1,2.7,27.9,3.9,40.6,8.1c22.4,7.5,44.3,16.8,66.1,25.9
		c2.8,1.2,6.1,5.6,6.1,8.5c0.3,68,0.2,136,0.2,204c0,0.6-0.3,1.2-0.7,2.8C192.4,331.7,155.6,319,115.2,315.5z"/>
	<path class="st0" d="M235.3,349.2c0-9.5,0-18.6,0-27.7c0-57.9,0.2-115.8-0.2-173.7c-0.1-7.6,2.7-11.3,9-14.6
		c33.8-17.5,76.1-30.3,104-30.9c0,70.8,0,141.5,0,211.5c-19.5,4.5-39,7.7-57.7,13.6C272,333.2,254.4,341.6,235.3,349.2z"/>
	<path class="st0" d="M98.4,131.1c3.1-0.3,5.9-0.6,9.5-0.9c0,66.3,0,131.8,0,199.6c12.8,0,24.9-0.8,36.9,0.2
		c27.9,2.1,54.5,11,80.3,23.5c3.2,1.6,7.9,2.2,11,0.7c36.6-18.1,74.5-27.2,114.2-25.4c1,0,2.1-0.2,4.2-0.4c0-65.9,0-131.6,0-198.1
		c4,0.4,6.8,0.7,10.3,1c0,3.4,0,6.5,0,9.5c0,66.7,0,133.3,0,200c0,12-0.2,11.9-10.3,10.6c-38.1-5-75.9-3.5-113.1,9.1
		c-6.2,2.1-13.9,2.1-20.2,0c-37.7-12.7-76-14.3-114.6-8.7c-6.1,0.9-8.8-0.4-8.8-8.3c0.1-69.5,0.1-138.9,0.1-208.4
		C97.9,134.1,98.1,133.2,98.4,131.1z"/>
</g>
<text transform="matrix(1 0 0 1 125.3783 274.9264)" class="st1 st2 st3">S</text>
<text transform="matrix(1 0 0 1 248.3783 274.9264)" class="st1 st2 st3">S</text>
</svg>
